0
SECTION
2
HEADER
9
$INSUNITS
70
4
9
$ACADVER
1
AC1014
9
$HANDSEED
5
FFFF
0
ENDSEC
0
SECTION
2
TABLES
0
TABLE
2
VPORT
5
8
100
AcDbSymbolTable
0
ENDTAB
0
TABLE
2
LTYPE
5
5
100
AcDbSymbolTable
0
LTYPE
5
14
100
AcDbSymbolTableRecord
100
AcDbLinetypeTableRecord
2
BYBLOCK
70
0
0
LTYPE
5
15
100
AcDbSymbolTableRecord
100
AcDbLinetypeTableRecord
2
BYLAYER
70
0
0
ENDTAB
0
TABLE
2
LAYER
5
2
100
AcDbSymbolTable
70
2
0
LAYER
5
50
100
AcDbSymbolTableRecord
100
AcDbLayerTableRecord
2
0
70
0
6
CONTINUOUS
0
ENDTAB
0
TABLE
2
STYLE
5
3
100
AcDbSymbolTable
70
1
0
STYLE
5
11
100
AcDbSymbolTableRecord
100
AcDbTextStyleTableRecord
2
STANDARD
70
0
0
ENDTAB
0
TABLE
2
VIEW
5
6
100
AcDbSymbolTable
70
0
0
ENDTAB
0
TABLE
2
UCS
5
7
100
AcDbSymbolTable
70
0
0
ENDTAB
0
TABLE
2
APPID
5
9
100
AcDbSymbolTable
70
2
0
APPID
5
12
100
AcDbSymbolTableRecord
100
AcDbRegAppTableRecord
2
ACAD
70
0
0
ENDTAB
0
TABLE
2
DIMSTYLE
5
A
100
AcDbSymbolTable
70
1
0
ENDTAB
0
TABLE
2
BLOCK_RECORD
5
1
100
AcDbSymbolTable
70
1
0
BLOCK_RECORD
5
1F
100
AcDbSymbolTableRecord
100
AcDbBlockTableRecord
2
*MODEL_SPACE
0
BLOCK_RECORD
5
1B
100
AcDbSymbolTableRecord
100
AcDbBlockTableRecord
2
*PAPER_SPACE
0
ENDTAB
0
ENDSEC
0
SECTION
2
BLOCKS
0
BLOCK
5
20
100
AcDbEntity
100
AcDbBlockBegin
2
*MODEL_SPACE
0
ENDBLK
5
21
100
AcDbEntity
100
AcDbBlockEnd
0
BLOCK
5
1C
100
AcDbEntity
100
AcDbBlockBegin
2
*PAPER_SPACE
0
ENDBLK
5
1D
100
AcDbEntity
100
AcDbBlockEnd
0
ENDSEC
0
SECTION
2
ENTITIES
0
LINE
5
100
100
AcDbEntity
8
0
100
AcDbLine
10
-1409.1896452844271
20
-155.98925346778313
30
0
11
-1409.0616808658785
21
-155.94267822838634
31
0
0
LINE
5
101
100
AcDbEntity
8
0
100
AcDbLine
10
-1446.6337112544561
20
-208.97144125662405
30
0
11
-1440.9065721760699
21
-206.88693428787423
31
0
0
LINE
5
102
100
AcDbEntity
8
0
100
AcDbLine
10
-1273.0471767850911
20
114.37305823988838
30
0
11
-1277.152862009279
21
105.56517818050899
31
0
0
SPLINE
5
103
100
AcDbEntity
8
0
100
AcDbSpline
70
4
71
3
72
8
73
4
74
0
42
0.000000001
43
0.0000000001
44
0.0000000001
40
0
40
0
40
0
40
0
40
1
40
1
40
1
40
1
41
1
41
1
41
1
41
1
10
-1277.152862009279
20
105.56517818050898
30
0
10
-1280.0376774628508
20
99.381881158606916
30
0
10
-1285.260243957606
20
94.595153721733084
30
0
10
-1291.6731897542093
20
92.261032337806967
30
0
0
LINE
5
104
100
AcDbEntity
8
0
100
AcDbLine
10
-1291.6731897542093
20
92.261032337806967
30
0
11
-1429.5097556848668
21
42.092625145576775
31
0
0
SPLINE
5
105
100
AcDbEntity
8
0
100
AcDbSpline
70
4
71
3
72
8
73
4
74
0
42
0.000000001
43
0.0000000001
44
0.0000000001
40
0
40
0
40
0
40
0
40
1
40
1
40
1
40
1
41
1
41
1
41
1
41
1
10
-1429.5097556848668
20
42.092625145576775
30
0
10
-1439.3858540103752
20
38.498019324405433
30
0
10
-1447.4302379809094
20
31.126107216163579
30
0
10
-1451.8710329622061
20
21.602791646209081
30
0
0
LINE
5
106
100
AcDbEntity
8
0
100
AcDbLine
10
-1451.8710329622061
20
21.602791646209081
30
0
11
-1508.9106482316618
21
-100.7190580423409
31
0
0
SPLINE
5
107
100
AcDbEntity
8
0
100
AcDbSpline
70
4
71
3
72
8
73
4
74
0
42
0.000000001
43
0.0000000001
44
0.0000000001
40
0
40
0
40
0
40
0
40
1
40
1
40
1
40
1
41
1
41
1
41
1
41
1
10
-1508.9106482316618
20
-100.71905804234089
30
0
10
-1511.8871028658082
20
-107.09887592117641
30
0
10
-1505.6618795592735
20
-113.89237935786896
30
0
10
-1499.0454102940057
20
-111.48418148937432
30
0
0
LINE
5
108
100
AcDbEntity
8
0
100
AcDbLine
10
-1499.0454102940057
20
-111.48418148937432
30
0
11
-1459.3195549674174
21
-97.025152619730733
31
0
0
SPLINE
5
109
100
AcDbEntity
8
0
100
AcDbSpline
70
4
71
3
72
8
73
4
74
0
42
0.000000001
43
0.0000000001
44
0.0000000001
40
0
40
0
40
0
40
0
40
1
40
1
40
1
40
1
41
1
41
1
41
1
41
1
10
-1459.3195549674174
20
-97.025152619730733
30
0
10
-1453.3820248689497
20
-94.86406839882882
30
0
10
-1447.7935901024061
20
-100.96137871512305
30
0
10
-1450.464725015371
20
-106.68960687911877
30
0
0
LINE
5
110
100
AcDbEntity
8
0
100
AcDbLine
10
-1450.464725015371
20
-106.68960687911877
30
0
11
-1477.9502151731574
21
-165.63243073608933
31
0
0
SPLINE
5
111
100
AcDbEntity
8
0
100
AcDbSpline
70
4
71
3
72
8
73
4
74
0
42
0.000000001
43
0.0000000001
44
0.0000000001
40
0
40
0
40
0
40
0
40
1
40
1
40
1
40
1
41
1
41
1
41
1
41
1
10
-1477.9502151731576
20
-165.63243073608936
30
0
10
-1481.1408847428017
20
-172.47159488410426
30
0
10
-1474.4663816046568
20
-179.75419173532632
30
0
10
-1467.3744526742043
20
-177.17294070111038
30
0
0
LINE
5
112
100
AcDbEntity
8
0
100
AcDbLine
10
-1467.3744526742043
20
-177.17294070111035
30
0
11
-1458.0458320397333
21
-173.7776004634014
31
0
0
SPLINE
5
113
100
AcDbEntity
8
0
100
AcDbSpline
70
4
71
3
72
8
73
4
74
0
42
0.000000001
43
0.0000000001
44
0.0000000001
40
0
40
0
40
0
40
0
40
1
40
1
40
1
40
1
41
1
41
1
41
1
41
1
10
-1458.0458320397333
20
-173.77760046340137
30
0
10
-1452.3460317738579
20
-171.70304282536009
30
0
10
-1446.9831162640946
20
-177.55612648833028
30
0
10
-1449.5465444559018
20
-183.05345512836141
30
0
0
LINE
5
114
100
AcDbEntity
8
0
100
AcDbLine
10
-1449.546544455902
20
-183.05345512836141
30
0
11
-1456.5640436635565
21
-198.09932106117245
31
0
0
SPLINE
5
115
100
AcDbEntity
8
0
100
AcDbSpline
70
4
71
3
72
8
73
4
74
0
42
0.000000001
43
0.0000000001
44
0.0000000001
40
0
40
0
40
0
40
0
40
1
40
1
40
1
40
1
41
1
41
1
41
1
41
1
10
-1456.5640436635565
20
-198.09932106117247
30
0
10
-1459.5656565174397
20
-204.5388840021439
30
0
10
-1453.2858344860492
20
-211.39265463454578
30
0
10
-1446.6099657379198
20
-208.96283712235871
30
0
0
LINE
5
116
100
AcDbEntity
8
0
100
AcDbLine
10
-1446.6099657379198
20
-208.96283712235871
30
0
11
-1439.1074725062385
21
-206.23215290324308
31
0
0
SPLINE
5
117
100
AcDbEntity
8
0
100
AcDbSpline
70
4
71
3
72
8
73
4
74
0
42
0.000000001
43
0.0000000001
44
0.0000000001
40
0
40
0
40
0
40
0
40
1
40
1
40
1
40
1
41
1
41
1
41
1
41
1
10
-1439.1074725062385
20
-206.2321529032431
30
0
10
-1434.0217600102569
20
-204.38110493467008
30
0
10
-1429.8797828113443
20
-200.58710790933338
30
0
10
-1427.5923187231951
20
-195.68193848165322
30
0
0
LINE
5
118
100
AcDbEntity
8
0
100
AcDbLine
10
-1427.5923187231951
20
-195.68193848165325
30
0
11
-1397.2227012681776
21
-130.55379010760316
31
0
0
SPLINE
5
119
100
AcDbEntity
8
0
100
AcDbSpline
70
4
71
3
72
8
73
4
74
0
42
0.000000001
43
0.0000000001
44
0.0000000001
40
0
40
0
40
0
40
0
40
1
40
1
40
1
40
1
41
1
41
1
41
1
41
1
10
-1397.2227012681776
20
-130.55379010760316
30
0
10
-1394.3946663790798
20
-124.4890497164903
30
0
10
-1400.312480302531
20
-118.0302886552426
30
0
10
-1406.6011752193663
20
-120.3191864173518
30
0
0
SPLINE
5
120
100
AcDbEntity
8
0
100
AcDbSpline
70
4
71
3
72
8
73
4
74
0
42
0.000000001
43
0.0000000001
44
0.0000000001
40
0
40
0
40
0
40
0
40
1
40
1
40
1
40
1
41
1
41
1
41
1
41
1
10
-1406.6011752193663
20
-120.3191864173518
30
0
10
-1412.2956115052943
20
-122.39179172635494
30
0
10
-1417.6515971971189
20
-116.54639308452482
30
0
10
-1415.0922647311518
20
-111.0546380742263
30
0
0
LINE
5
121
100
AcDbEntity
8
0
100
AcDbLine
10
-1415.0922647311515
20
-111.0546380742263
30
0
11
-1395.1550801748153
21
-68.29920781768611
31
0
0
SPLINE
5
122
100
AcDbEntity
8
0
100
AcDbSpline
70
4
71
3
72
8
73
4
74
0
42
0.000000001
43
0.0000000001
44
0.0000000001
40
0
40
0
40
0
40
0
40
1
40
1
40
1
40
1
41
1
41
1
41
1
41
1
10
-1395.1550801748153
20
-68.299207817686096
30
0
10
-1392.5589207610108
20
-62.734896528239702
30
0
10
-1397.9886065084411
20
-56.810266502599006
30
0
10
-1403.7586661182195
20
-58.910396450499917
30
0
0
LINE
5
123
100
AcDbEntity
8
0
100
AcDbLine
10
-1403.7586661182195
20
-58.910396450499917
30
0
11
-1425.4828288727304
21
-66.817345057496397
31
0
0
SPLINE
5
124
100
AcDbEntity
8
0
100
AcDbSpline
70
4
71
3
72
8
73
4
74
0
42
0.000000001
43
0.0000000001
44
0.0000000001
40
0
40
0
40
0
40
0
40
1
40
1
40
1
40
1
41
1
41
1
41
1
41
1
10
-1425.4828288727304
20
-66.817345057496397
30
0
10
-1429.5996834824532
20
-68.315757594237084
30
0
10
-1433.4734154424007
20
-64.088604608737541
30
0
10
-1431.6205884232295
20
-60.118453068764111
30
0
0
LINE
5
125
100
AcDbEntity
8
0
100
AcDbLine
10
-1431.6205884232293
20
-60.118453068764111
30
0
11
-1426.7193324265677
21
-49.607675664733989
31
0
0
SPLINE
5
126
100
AcDbEntity
8
0
100
AcDbSpline
70
4
71
3
72
8
73
4
74
0
42
0.000000001
43
0.0000000001
44
0.0000000001
40
0
40
0
40
0
40
0
40
1
40
1
40
1
40
1
41
1
41
1
41
1
41
1
10
-1426.7193324265677
20
-49.607675664733989
30
0
10
-1424.9737136993635
20
-45.864184223673554
30
0
10
-1421.8123740473702
20
-42.967759218742586
30
0
10
-1417.9314466212413
20
-41.555217154284151
30
0
0
LINE
5
127
100
AcDbEntity
8
0
100
AcDbLine
10
-1417.9314466212409
20
-41.555217154284165
30
0
11
-1304.053932500115
21
-0.10719166196514252
31
0
0
SPLINE
5
128
100
AcDbEntity
8
0
100
AcDbSpline
70
4
71
3
72
8
73
4
74
0
42
0.000000001
43
0.0000000001
44
0.0000000001
40
0
40
0
40
0
40
0
40
1
40
1
40
1
40
1
41
1
41
1
41
1
41
1
10
-1304.0539325001148
20
-0.10719166196514252
30
0
10
-1297.5023146317537
20
2.2774022284049344
30
0
10
-1291.338295934502
20
-4.4486285879321485
30
0
10
-1294.2861150724909
20
-10.767037447085084
30
0
0
LINE
5
129
100
AcDbEntity
8
0
100
AcDbLine
10
-1294.2861150724909
20
-10.767037447085086
30
0
11
-1301.0113609437294
21
-25.1925834427593
31
0
0
SPLINE
5
130
100
AcDbEntity
8
0
100
AcDbSpline
70
4
71
3
72
8
73
4
74
0
42
0.000000001
43
0.0000000001
44
0.0000000001
40
0
40
0
40
0
40
0
40
1
40
1
40
1
40
1
41
1
41
1
41
1
41
1
10
-1301.0113609437294
20
-25.192583442759311
30
0
10
-1303.0089664442517
20
-29.476462263077288
30
0
10
-1298.8302758594498
20
-34.037233069125691
30
0
10
-1294.3892521992918
20
-32.420832647156303
30
0
0
LINE
5
131
100
AcDbEntity
8
0
100
AcDbLine
10
-1294.3892521992921
20
-32.420832647156303
30
0
11
-1276.1552377416187
21
-25.784194133383661
31
0
0
SPLINE
5
132
100
AcDbEntity
8
0
100
AcDbSpline
70
4
71
3
72
8
73
4
74
0
42
0.000000001
43
0.0000000001
44
0.0000000001
40
0
40
0
40
0
40
0
40
1
40
1
40
1
40
1
41
1
41
1
41
1
41
1
10
-1276.1552377416185
20
-25.784194133383647
30
0
10
-1271.1523591654823
20
-23.963295246021961
30
0
10
-1267.0766460178697
20
-20.228282898745764
30
0
10
-1264.82586323856
20
-15.401541936896077
30
0
0
LINE
5
133
100
AcDbEntity
8
0
100
AcDbLine
10
-1264.82586323856
20
-15.401541936896075
30
0
11
-1196.4316784898106
21
131.27022143693483
31
0
0
SPLINE
5
134
100
AcDbEntity
8
0
100
AcDbSpline
70
4
71
3
72
8
73
4
74
0
42
0.000000001
43
0.0000000001
44
0.0000000001
40
0
40
0
40
0
40
0
40
1
40
1
40
1
40
1
41
1
41
1
41
1
41
1
10
-1196.4316784898106
20
131.27022143693483
30
0
10
-1192.6929964487172
20
139.28777266270177
30
0
10
-1200.5131018198945
20
147.82373677169448
30
0
10
-1208.8259517270903
20
144.7981068435526
30
0
0
LINE
5
135
100
AcDbEntity
8
0
100
AcDbLine
10
-1208.8259517270903
20
144.7981068435526
30
0
11
-1260.2809845828608
21
126.07000648086273
31
0
0
SPLINE
5
136
100
AcDbEntity
8
0
100
AcDbSpline
70
4
71
3
72
8
73
4
74
0
42
0.000000001
43
0.0000000001
44
0.0000000001
40
0
40
0
40
0
40
0
40
1
40
1
40
1
40
1
41
1
41
1
41
1
41
1
10
-1260.2809845828608
20
126.07000648086272
30
0
10
-1265.919582716876
20
124.01772459709227
30
0
10
-1270.5104575406453
20
119.80970396243082
30
0
10
-1273.0471767850911
20
114.37305823988838
30
0
0
ENDSEC
0
SECTION
2
OBJECTS
0
DICTIONARY
5
C
100
AcDbDictionary
3
ACAD_GROUP
350
D
3
ACAD_MLINESTYLE
350
17
0
DICTIONARY
5
D
100
AcDbDictionary
0
DICTIONARY
5
1A
330
C
100
AcDbDictionary
0
DICTIONARY
5
17
100
AcDbDictionary
0
ENDSEC
0
EOF
